# xmcd
# 
# Track frame offsets:
#     150
#     13125
#     26955
#     44925
#     59305
#     71040
#     85475
#     98880
#     113885
#     126760
#     138455
#     152080
#     165025
#     176880
# 
# Disc length: 2493
# 
# Revision: 1
# Processed by: cddbd v1.5.2PL0 Copyright (c) Steve Scherf et al.
# Submitted via: BonkEnc v1.0.8
# 
DISCID=c909bb0e
DTITLE=Rossano - Ti Voglio Tanto Bene
DYEAR=1996
DGENRE=Italian
TTITLE0=Ti Coglio Tanto Bene
TTITLE1=Cosi Dolce Cosi' Cara
TTITLE2=Per Un Ora D'Amore
TTITLE3=Ieri
TTITLE4=Souvenir D'Italie
TTITLE5=Fotana i Trevi
TTITLE6=Non Dimenticar
TTITLE7=Luna Caprese
TTITLE8=Tornerai
TTITLE9=Love In Portofino
TTITLE10=Piove
TTITLE11=Arriverderci Roma
TTITLE12=Com ' E ' Tristre Venezia
TTITLE13=Arrivedesci
EXTD=
EXTT0=
EXTT1=
EXTT2=
EXTT3=
EXTT4=
EXTT5=
EXTT6=
EXTT7=
EXTT8=
EXTT9=
EXTT10=
EXTT11=
EXTT12=
EXTT13=
PLAYORDER=
